# xmcd
#
# Track frame offsets: 
#        150
#        29930
#        57045
#        73735
#        112475
#        142195
#        162692
#        183670
#        212372
#        237227
#
# Disc length: 3517 seconds
#
# Revision: 0
# Processed by: cddbd v1.5.2PL0 Copyright (c) Steve Scherf et al.
# Submitted via: ExactAudioCopy v1.0b3
#
DISCID=a50dbb0a
DTITLE=Nhat Truong - Toi va Di vang
DYEAR=1994
DGENRE=
TTITLE0=Tu nua vong trai dat
TTITLE1=Tinh dau tinh cuoi
TTITLE2=Tinh co nhu khong
TTITLE3=Toi va di vang
TTITLE4=Doi nga doi ta
TTITLE5=Can loi yeu dau
TTITLE6=Rung chua thay la
TTITLE7=Tinh muon
TTITLE8=Mot doi yeu anh
TTITLE9=La thu
EXTD=
EXTT0=
EXTT1=
EXTT2=
EXTT3=
EXTT4=
EXTT5=
EXTT6=
EXTT7=
EXTT8=
EXTT9=
PLAYORDER=
